<svg width="716" height="594" viewBox="0 0 716 594" fill="none" xmlns="http://www.w3.org/2000/svg">
<path d="M715.7 499.433C715.912 479.507 715.954 459.581 715.954 439.676C715.954 419.75 715.954 399.824 715.7 379.92C715.658 377.131 716.631 355.641 715.108 355.155C692.92 348.098 669.611 344.379 646.323 341.716C647.698 340.977 649.073 340.237 650.406 339.455C651.802 338.631 651.04 312.028 650.998 314.691C651.209 294.765 651.252 274.839 651.252 254.934C651.252 235.008 651.252 215.082 650.998 195.178C650.913 187.275 652.013 178.147 650.406 170.413C649.602 166.588 639.428 165.447 636.615 164.835C625.489 162.426 614.11 161.01 602.815 159.615C592.577 158.348 582.298 157.249 572.039 156.192C572.018 155.77 571.997 155.58 571.997 155.685C572.208 135.759 572.251 115.834 572.251 95.9288C572.251 76.003 572.251 56.0771 571.997 36.1724C571.955 33.341 572.991 11.9571 571.405 11.4077C560.448 7.70993 547.842 7.43523 536.441 6.48437C516.918 4.83621 497.353 3.82196 477.809 2.91336C447.689 1.53989 417.527 0.272072 387.387 0.0607689C301.258 -0.573139 214.917 3.86422 128.915 8.15366C86.3159 10.2667 43.6744 12.4642 1.18101 15.993C-0.828382 16.162 0.334951 94.0694 0.334951 100.514C0.334951 106.684 1.45598 185.014 1.18101 185.035C41.3054 181.718 81.5145 179.245 121.745 177.259C121.66 197.481 121.66 217.703 121.745 237.924C102.37 241.812 81.4933 249.461 79.9493 268.119C77.4111 298.695 79.2936 330.221 79.3359 360.86C79.357 379.687 78.0879 399.338 78.8917 418.461C71.8905 419.771 64.9528 421.483 58.1843 423.976C57.1056 424.378 57.5498 452.037 57.5921 448.741C57.3806 468.667 57.3383 488.593 57.3383 508.497C57.3383 528.423 57.3383 548.349 57.5921 568.254C57.6133 570.874 58.9247 592.744 58.1843 593.018C83.9892 583.594 111.571 585.496 138.222 580.383C166.099 575.016 192.348 563.647 220.459 559.062C250.092 554.244 280.423 553.801 310.353 552.322C341.213 550.8 372.073 549.363 402.954 548.243C477.725 545.539 552.601 546.68 627.245 540.658C645.604 539.179 664.027 537.404 682.196 534.234C692.984 532.354 705.865 530.621 715.087 524.218C716.631 523.162 715.7 497.172 715.679 499.454L715.7 499.433Z" fill="#1D1D1B"/>
</svg>
