<?xml version="1.0" encoding="UTF-8" standalone="no" ?>
<!DOCTYPE svg PUBLIC "-//W3C//DTD SVG 1.1//EN" "http://www.w3.org/Graphics/SVG/1.1/DTD/svg11.dtd">
<svg xmlns="http://www.w3.org/2000/svg" xmlns:xlink="http://www.w3.org/1999/xlink" version="1.1" width="3000" height="3000" viewBox="-303.73 -344.84 3000 3000" xml:space="preserve">
<desc>Created with Fabric.js 5.2.4</desc>
<defs>
</defs>
<rect x="0" y="0" width="100%" height="100%" fill="transparent"></rect>
<g transform="matrix(1 0 0 1 1500 1500)" id="bd0cc79b-b350-47ee-bebc-35c87af32e08"  >
<rect style="stroke: none; stroke-width: 1; stroke-dasharray: none; stroke-linecap: butt; stroke-dashoffset: 0; stroke-linejoin: miter; stroke-miterlimit: 4; fill: rgb(255,255,255); fill-rule: nonzero; opacity: 1; visibility: hidden;" vector-effect="non-scaling-stroke"  x="-1500" y="-1500" rx="0" ry="0" width="3000" height="3000" />
</g>
<g transform="matrix(Infinity NaN NaN Infinity 0 0)" id="9fb3a512-e5a5-469d-afe2-8fbaa8b933cf"  >
</g>
<g transform="matrix(6.18 0 0 6.18 1208.38 1119.19)" id="mask-30"  >
<path style="stroke: rgb(0,0,0); stroke-width: 0; stroke-dasharray: none; stroke-linecap: butt; stroke-dashoffset: 0; stroke-linejoin: miter; stroke-miterlimit: 4; fill: rgb(52,56,170); fill-rule: nonzero; opacity: 1;" vector-effect="non-scaling-stroke"  transform=" translate(-173.39, -151.1)" d="M 313.294279 5.36151833 C 310.793948 7.4901448 295.192281 17.9226796 292.734077 20.0760863 C 267.644038 41.7340553 61.4600816 171.283647 28.1111465 195.114847 C 19.5946003 201.200784 7.32048749 210.026847 8.28196254 220.989645 C 9.191399 231.362672 17.894235 239.178374 28.1111465 239.178374 C 28.6934832 239.178374 29.285732 239.148638 29.8804588 239.101555 C 60.7361767 227.448832 71.2056705 214.584058 89.1178859 208.155705 C 52.4504984 233.850383 9.67957061 264.95649 9.06501955 265.392623 C 0.476172821 271.451402 -1.92503678 283.145219 3.57618645 292.098336 C 9.07740969 301.061365 20.5928081 304.203505 29.8804588 299.284618 L 231.169937 165.79156 C 212.906867 188.398614 195.245958 211.793681 184.236078 230.138526 C 179.986259 237.230644 180.553727 246.215975 185.668378 252.715844 C 190.778073 259.215712 199.374354 261.877115 207.27183 259.411477 C 214.956197 257.007789 223.525219 253.228795 232.267704 248.765866 L 225.713318 260.680227 C 222.073095 267.296563 222.486925 275.399716 226.783827 281.61709 C 230.53804 287.043972 236.690985 290.213371 243.171029 290.213371 C 244.105246 290.213371 245.049375 290.148942 245.993504 290.01265 C 247.752904 289.759891 289.334222 283.785365 312.1866 277.555601 C 322.804952 274.661264 329.06693 263.703422 326.167637 253.08507 C 323.275778 242.466718 312.320414 236.20474 301.699584 239.101555 C 295.804354 240.707318 288.243889 242.335382 280.460402 243.837067 L 304.479932 200.179162 C 308.992422 191.966975 307.180983 181.725284 300.126036 175.562427 C 293.365974 169.657285 283.538113 169.027866 276.099072 173.897192 C 303.607666 140.909676 329.171008 112.846004 329.634399 112.342964 C 336.166482 105.18394 336.607571 94.3673454 330.675171 86.7028033 C 324.737815 79.0407392 314.156633 76.760953 305.595045 81.2883111 L 272.602573 98.7559339 C 279.843373 92.1941144 286.013664 85.9395705 292.734077 79.1448164 C 302.594152 69.1608397 313.765105 57.8486396 332.015784 41.8802241 C 334.454164 39.7763779 336.877676 37.6774878 339.281364 35.5959439 C 347.572847 28.4146173 348.49963 15.8733152 341.345562 7.54961748 C 334.181581 -0.779036252 321.647713 -1.75290145 313.294279 5.36151833 Z" stroke-linecap="round" />
</g>
<g transform="matrix(-7.26 0 0 -7.26 787.73 710.35)"  >
<path style="stroke: rgb(0,0,0); stroke-width: 0; stroke-dasharray: none; stroke-linecap: butt; stroke-dashoffset: 0; stroke-linejoin: miter; stroke-miterlimit: 4; fill: rgb(52,56,170); fill-rule: nonzero; opacity: 1;" vector-effect="non-scaling-stroke"  transform=" translate(-173.39, -151.1)" d="M 313.294279 5.36151833 C 310.793948 7.4901448 295.192281 17.9226796 292.734077 20.0760863 C 267.644038 41.7340553 61.4600816 171.283647 28.1111465 195.114847 C 19.5946003 201.200784 7.32048749 210.026847 8.28196254 220.989645 C 9.191399 231.362672 17.894235 239.178374 28.1111465 239.178374 C 28.6934832 239.178374 29.285732 239.148638 29.8804588 239.101555 C 60.7361767 227.448832 71.2056705 214.584058 89.1178859 208.155705 C 52.4504984 233.850383 9.67957061 264.95649 9.06501955 265.392623 C 0.476172821 271.451402 -1.92503678 283.145219 3.57618645 292.098336 C 9.07740969 301.061365 20.5928081 304.203505 29.8804588 299.284618 L 231.169937 165.79156 C 212.906867 188.398614 195.245958 211.793681 184.236078 230.138526 C 179.986259 237.230644 180.553727 246.215975 185.668378 252.715844 C 190.778073 259.215712 199.374354 261.877115 207.27183 259.411477 C 214.956197 257.007789 223.525219 253.228795 232.267704 248.765866 L 225.713318 260.680227 C 222.073095 267.296563 222.486925 275.399716 226.783827 281.61709 C 230.53804 287.043972 236.690985 290.213371 243.171029 290.213371 C 244.105246 290.213371 245.049375 290.148942 245.993504 290.01265 C 247.752904 289.759891 289.334222 283.785365 312.1866 277.555601 C 322.804952 274.661264 329.06693 263.703422 326.167637 253.08507 C 323.275778 242.466718 312.320414 236.20474 301.699584 239.101555 C 295.804354 240.707318 288.243889 242.335382 280.460402 243.837067 L 304.479932 200.179162 C 308.992422 191.966975 307.180983 181.725284 300.126036 175.562427 C 293.365974 169.657285 283.538113 169.027866 276.099072 173.897192 C 303.607666 140.909676 329.171008 112.846004 329.634399 112.342964 C 336.166482 105.18394 336.607571 94.3673454 330.675171 86.7028033 C 324.737815 79.0407392 314.156633 76.760953 305.595045 81.2883111 L 272.602573 98.7559339 C 279.843373 92.1941144 286.013664 85.9395705 292.734077 79.1448164 C 302.594152 69.1608397 313.765105 57.8486396 332.015784 41.8802241 C 334.454164 39.7763779 336.877676 37.6774878 339.281364 35.5959439 C 347.572847 28.4146173 348.49963 15.8733152 341.345562 7.54961748 C 334.181581 -0.779036252 321.647713 -1.75290145 313.294279 5.36151833 Z" stroke-linecap="round" />
</g>
</svg>